<svg xmlns="http://www.w3.org/2000/svg" viewBox="0 30 275 210" width="100%" height="100%">
    <style>
      .logo-text { font-family: -apple-system, BlinkMacSystemFont, "Segoe UI", Roboto, Helvetica, Arial, sans-serif; font-weight: 900; font-size: 48px; letter-spacing: -1.5px; fill: #111827; }
      .sub-text { font-family: -apple-system, BlinkMacSystemFont, "Segoe UI", Roboto, Helvetica, Arial, sans-serif; font-weight: 700; font-size: 11px; fill: #6b7280; letter-spacing: 2.5px; }
    </style>
    <defs>
        <linearGradient id="solidGrad" x1="0%" y1="0%" x2="0%" y2="100%">
            <stop offset="0%" stop-color="#f97316"/>
            <stop offset="100%" stop-color="#3b82f6"/>
        </linearGradient>
    </defs>
    
    <g transform="translate(-140, 0)">
        <path d="M 308.3 91.8 L 309.9 90.2 L 311.6 88.7 L 313.2 87.1 L 314.9 85.6 L 316.6 84.1 L 318.3 82.6 L 320.1 81.1 L 321.9 79.7 L 323.7 78.2 L 325.6 76.8 L 327.5 75.5 L 329.4 74.1 L 331.4 72.8 L 333.4 71.5 L 335.5 70.3 L 337.6 69.1 L 339.8 68.0 L 342.0 67.0 L 344.3 66.0 L 346.7 65.0 L 349.1 64.2 L 351.5 63.4 L 354.0 62.8 L 356.6 62.2 L 359.2 61.7 L 361.8 61.4 L 364.5 61.2 L 367.2 61.1 L 370.0 61.2 L 372.7 61.4 L 375.5 61.8 L 378.3 62.3 L 381.0 63.0 L 383.8 63.9 L 386.5 65.0 L 389.1 66.3 L 391.7 67.8 L 394.2 69.5 L 396.5 71.3 L 398.8 73.4 L 400.9 75.6 L 402.8 78.0 L 404.5 80.6 L 406.0 83.3 L 407.3 86.2 L 408.4 89.1 L 409.2 92.2 L 409.7 95.3 L 410.0 98.4 L 410.0 101.6 L 409.7 104.7 L 409.2 107.8 L 408.4 110.9 L 407.3 113.8 L 406.0 116.7 L 404.5 119.4 L 402.8 122.0 L 400.9 124.4 L 398.8 126.6 L 396.5 128.7 L 394.2 130.5 L 391.7 132.2 L 389.1 133.7 L 386.5 135.0 L 383.8 136.1 L 381.0 137.0 L 378.3 137.7 L 375.5 138.2 L 372.7 138.6 L 370.0 138.8 L 367.2 138.9 L 364.5 138.8 L 361.8 138.6 L 359.2 138.3 L 356.6 137.8 L 354.0 137.2 L 351.5 136.6 L 349.1 135.8 L 346.7 135.0 L 344.3 134.0 L 342.0 133.0 L 339.8 132.0 L 337.6 130.9 L 335.5 129.7 L 333.4 128.5 L 331.4 127.2 L 329.4 125.9 L 327.5 124.5 L 325.6 123.2 L 323.7 121.8 L 321.9 120.3 L 320.1 118.9 L 318.3 117.4 L 316.6 115.9 L 314.9 114.4 L 313.2 112.9 L 311.6 111.3 L 309.9 109.8 L 308.3 108.2 " fill="none" stroke="url(#solidGrad)" stroke-width="12" stroke-linecap="round"/>
        <circle cx="196.7" cy="71.8" r="1.4" fill="#f97316" opacity="0.37"/>
        <circle cx="283.9" cy="116.8" r="1.9" fill="#3b82f6" opacity="0.89"/>
        <circle cx="239.6" cy="131.9" r="1.3" fill="#3b82f6" opacity="0.57"/>
        <circle cx="205.1" cy="104.6" r="2.5" fill="#3b82f6" opacity="0.33"/>
        <circle cx="258.6" cy="72.5" r="4.5" fill="#f97316" opacity="0.75"/>
        <circle cx="260.4" cy="65.0" r="4.6" fill="#f97316" opacity="0.75"/>
        <circle cx="283.5" cy="83.6" r="4.8" fill="#f97316" opacity="0.88"/>
        <circle cx="265.1" cy="128.0" r="3.2" fill="#3b82f6" opacity="0.78"/>
        <circle cx="186.0" cy="112.7" r="3.2" fill="#3b82f6" opacity="0.33"/>
        <circle cx="240.1" cy="136.2" r="3.2" fill="#3b82f6" opacity="0.52"/>
        <circle cx="288.4" cy="89.7" r="4.6" fill="#f97316" opacity="0.92"/>
        <circle cx="285.5" cy="112.8" r="5.2" fill="#3b82f6" opacity="0.91"/>
        <circle cx="256.1" cy="133.8" r="5.3" fill="#3b82f6" opacity="0.73"/>
        <circle cx="250.1" cy="69.0" r="5.0" fill="#f97316" opacity="0.67"/>
        <circle cx="253.5" cy="59.1" r="4.8" fill="#f97316" opacity="0.71"/>
        <circle cx="252.7" cy="64.1" r="3.7" fill="#f97316" opacity="0.71"/>
        <circle cx="229.0" cy="66.0" r="2.9" fill="#f97316" opacity="0.50"/>
        <circle cx="195.8" cy="90.1" r="2.8" fill="#f97316" opacity="0.26"/>
        <circle cx="197.1" cy="56.8" r="2.8" fill="#f97316" opacity="0.29"/>
        <circle cx="240.1" cy="72.9" r="3.4" fill="#f97316" opacity="0.53"/>
        <circle cx="180.4" cy="113.1" r="2.9" fill="#3b82f6" opacity="0.35"/>
        <circle cx="268.1" cy="72.7" r="5.4" fill="#f97316" opacity="0.77"/>
        <circle cx="236.0" cy="103.9" r="3.7" fill="#3b82f6" opacity="0.52"/>
        <circle cx="231.8" cy="82.7" r="3.0" fill="#f97316" opacity="0.39"/>
        <circle cx="185.8" cy="102.7" r="1.6" fill="#3b82f6" opacity="0.27"/>
        <circle cx="251.4" cy="130.3" r="1.6" fill="#3b82f6" opacity="0.66"/>
        <circle cx="267.7" cy="54.1" r="2.6" fill="#f97316" opacity="0.69"/>
        <circle cx="181.2" cy="106.2" r="0.9" fill="#3b82f6" opacity="0.25"/>
        <circle cx="191.5" cy="146.5" r="1.2" fill="#3b82f6" opacity="0.32"/>
        <circle cx="286.0" cy="84.9" r="2.8" fill="#f97316" opacity="0.89"/>
        <circle cx="190.7" cy="132.8" r="1.1" fill="#3b82f6" opacity="0.34"/>
        <circle cx="271.8" cy="76.9" r="4.1" fill="#f97316" opacity="0.73"/>
        <circle cx="277.7" cy="82.3" r="5.4" fill="#f97316" opacity="0.87"/>
        <circle cx="282.7" cy="113.8" r="2.2" fill="#3b82f6" opacity="0.89"/>
        <circle cx="286.6" cy="114.3" r="3.7" fill="#3b82f6" opacity="0.91"/>
        <circle cx="253.9" cy="132.2" r="2.5" fill="#3b82f6" opacity="0.70"/>
        <circle cx="247.9" cy="66.3" r="3.2" fill="#f97316" opacity="0.50"/>
        <circle cx="275.9" cy="81.2" r="4.4" fill="#f97316" opacity="0.83"/>
        <circle cx="204.5" cy="132.0" r="2.2" fill="#3b82f6" opacity="0.48"/>
        <circle cx="189.7" cy="120.8" r="1.1" fill="#3b82f6" opacity="0.28"/>
        <circle cx="260.5" cy="70.9" r="2.4" fill="#f97316" opacity="0.80"/>
        <circle cx="146.2" cy="69.9" r="2.0" fill="#f97316" opacity="0.25"/>
        <circle cx="285.7" cy="86.7" r="3.6" fill="#f97316" opacity="0.91"/>
        <circle cx="276.5" cy="126.9" r="5.5" fill="#3b82f6" opacity="0.84"/>
        <circle cx="230.3" cy="65.7" r="1.6" fill="#f97316" opacity="0.59"/>
        <circle cx="215.0" cy="137.5" r="2.7" fill="#3b82f6" opacity="0.44"/>
        <circle cx="226.3" cy="69.9" r="2.3" fill="#f97316" opacity="0.49"/>
        <circle cx="177.1" cy="152.3" r="1.9" fill="#3b82f6" opacity="0.25"/>
        <circle cx="189.6" cy="126.6" r="2.8" fill="#3b82f6" opacity="0.27"/>
        <circle cx="254.7" cy="67.8" r="2.8" fill="#f97316" opacity="0.71"/>
        <circle cx="286.2" cy="113.7" r="2.4" fill="#3b82f6" opacity="0.91"/>
        <circle cx="254.7" cy="147.2" r="4.6" fill="#3b82f6" opacity="0.64"/>
        <circle cx="282.9" cy="118.3" r="3.1" fill="#3b82f6" opacity="0.88"/>
        <circle cx="275.1" cy="121.9" r="5.2" fill="#3b82f6" opacity="0.82"/>
        <circle cx="201.3" cy="129.2" r="1.8" fill="#3b82f6" opacity="0.33"/>
        <circle cx="277.3" cy="122.1" r="5.9" fill="#3b82f6" opacity="0.85"/>
        <circle cx="276.3" cy="80.9" r="5.0" fill="#f97316" opacity="0.84"/>
        <circle cx="252.4" cy="67.1" r="4.9" fill="#f97316" opacity="0.69"/>
        <circle cx="285.8" cy="84.9" r="3.3" fill="#f97316" opacity="0.89"/>
        <circle cx="218.0" cy="73.9" r="1.2" fill="#f97316" opacity="0.46"/>
        <circle cx="210.4" cy="68.0" r="3.2" fill="#f97316" opacity="0.35"/>
        <circle cx="254.6" cy="71.6" r="2.8" fill="#f97316" opacity="0.56"/>
        <circle cx="255.5" cy="126.1" r="4.2" fill="#3b82f6" opacity="0.73"/>
        <circle cx="224.7" cy="75.8" r="3.1" fill="#f97316" opacity="0.40"/>
        <circle cx="233.2" cy="51.8" r="1.5" fill="#f97316" opacity="0.55"/>
        <circle cx="147.9" cy="150.7" r="2.7" fill="#3b82f6" opacity="0.27"/>
        <circle cx="263.6" cy="70.4" r="2.2" fill="#f97316" opacity="0.77"/>
        <circle cx="257.9" cy="142.6" r="1.9" fill="#3b82f6" opacity="0.69"/>
        <circle cx="279.7" cy="79.7" r="2.1" fill="#f97316" opacity="0.86"/>
        <circle cx="289.9" cy="110.8" r="2.3" fill="#3b82f6" opacity="0.93"/>
        <circle cx="236.5" cy="126.6" r="4.3" fill="#3b82f6" opacity="0.64"/>
        <circle cx="250.2" cy="73.4" r="1.8" fill="#f97316" opacity="0.69"/>
        <circle cx="291.0" cy="91.7" r="3.9" fill="#f97316" opacity="0.94"/>
        <circle cx="255.7" cy="133.3" r="3.3" fill="#3b82f6" opacity="0.71"/>
        <circle cx="233.6" cy="129.6" r="3.5" fill="#3b82f6" opacity="0.52"/>
        <circle cx="240.8" cy="139.7" r="2.5" fill="#3b82f6" opacity="0.56"/>
        <circle cx="252.0" cy="134.0" r="2.2" fill="#3b82f6" opacity="0.64"/>
        <circle cx="279.4" cy="82.4" r="6.2" fill="#f97316" opacity="0.86"/>
        <circle cx="213.8" cy="53.5" r="3.6" fill="#f97316" opacity="0.40"/>
        <circle cx="278.2" cy="76.0" r="4.6" fill="#f97316" opacity="0.81"/>
        <circle cx="275.1" cy="125.2" r="4.0" fill="#3b82f6" opacity="0.78"/>
        <circle cx="205.7" cy="148.3" r="2.5" fill="#3b82f6" opacity="0.37"/>
        <circle cx="208.1" cy="54.6" r="2.4" fill="#f97316" opacity="0.45"/>
        <circle cx="282.8" cy="79.3" r="2.1" fill="#f97316" opacity="0.87"/>
        <circle cx="229.3" cy="84.9" r="2.1" fill="#f97316" opacity="0.49"/>
        <circle cx="228.8" cy="75.4" r="1.6" fill="#f97316" opacity="0.46"/>
        <circle cx="223.3" cy="156.6" r="4.3" fill="#3b82f6" opacity="0.56"/>
        <circle cx="210.0" cy="129.3" r="3.1" fill="#3b82f6" opacity="0.39"/>
        <circle cx="267.4" cy="128.6" r="5.8" fill="#3b82f6" opacity="0.81"/>
        <circle cx="197.0" cy="97.5" r="1.8" fill="#f97316" opacity="0.26"/>
        <circle cx="266.1" cy="72.5" r="1.9" fill="#f97316" opacity="0.80"/>
        <circle cx="234.5" cy="142.1" r="4.4" fill="#3b82f6" opacity="0.53"/>
        <circle cx="244.3" cy="138.0" r="4.1" fill="#3b82f6" opacity="0.62"/>
        <circle cx="188.4" cy="85.3" r="1.1" fill="#f97316" opacity="0.28"/>
        <circle cx="247.7" cy="140.8" r="2.2" fill="#3b82f6" opacity="0.64"/>
        <circle cx="213.4" cy="131.9" r="1.5" fill="#3b82f6" opacity="0.25"/>
        <circle cx="197.9" cy="90.7" r="1.9" fill="#f97316" opacity="0.25"/>
        <circle cx="198.9" cy="110.0" r="2.7" fill="#3b82f6" opacity="0.30"/>
        <circle cx="289.3" cy="89.3" r="6.0" fill="#f97316" opacity="0.92"/>
        <circle cx="270.4" cy="75.2" r="1.8" fill="#f97316" opacity="0.82"/>
        <circle cx="287.2" cy="88.3" r="5.1" fill="#f97316" opacity="0.91"/>
        <circle cx="203.9" cy="128.2" r="1.1" fill="#3b82f6" opacity="0.39"/>
        <circle cx="237.5" cy="39.7" r="2.3" fill="#f97316" opacity="0.48"/>
        <circle cx="209.6" cy="99.7" r="1.5" fill="#9333ea" opacity="0.25"/>
        <circle cx="279.4" cy="122.1" r="3.5" fill="#3b82f6" opacity="0.84"/>
        <circle cx="250.0" cy="64.7" r="4.6" fill="#f97316" opacity="0.60"/>
        <circle cx="167.4" cy="73.7" r="2.0" fill="#f97316" opacity="0.32"/>
        <circle cx="242.9" cy="141.2" r="2.5" fill="#3b82f6" opacity="0.61"/>
        <circle cx="237.2" cy="67.9" r="1.7" fill="#f97316" opacity="0.64"/>
        <circle cx="276.7" cy="81.1" r="3.3" fill="#f97316" opacity="0.86"/>
        <circle cx="230.2" cy="71.6" r="3.3" fill="#f97316" opacity="0.53"/>
        <circle cx="260.5" cy="67.1" r="1.8" fill="#f97316" opacity="0.74"/>
        <circle cx="279.1" cy="117.5" r="2.6" fill="#3b82f6" opacity="0.86"/>
        <circle cx="247.6" cy="133.0" r="2.9" fill="#3b82f6" opacity="0.70"/>
        <circle cx="242.0" cy="133.8" r="1.1" fill="#3b82f6" opacity="0.39"/>
        <circle cx="270.8" cy="130.8" r="2.0" fill="#3b82f6" opacity="0.79"/>
        <circle cx="254.0" cy="133.2" r="4.5" fill="#3b82f6" opacity="0.69"/>
        <circle cx="252.9" cy="69.6" r="2.3" fill="#f97316" opacity="0.71"/>
        <circle cx="272.5" cy="118.0" r="4.3" fill="#3b82f6" opacity="0.82"/>
        <circle cx="178.6" cy="65.1" r="2.4" fill="#f97316" opacity="0.26"/>
        <circle cx="258.8" cy="135.9" r="3.5" fill="#3b82f6" opacity="0.70"/>
        <circle cx="271.4" cy="123.8" r="3.6" fill="#3b82f6" opacity="0.82"/>
        <circle cx="202.5" cy="64.6" r="1.9" fill="#f97316" opacity="0.48"/>
        <circle cx="272.2" cy="75.5" r="3.1" fill="#f97316" opacity="0.81"/>
        <circle cx="242.3" cy="55.1" r="1.8" fill="#f97316" opacity="0.64"/>
        <circle cx="201.1" cy="97.0" r="2.4" fill="#f97316" opacity="0.30"/>
        <circle cx="257.9" cy="140.8" r="1.9" fill="#3b82f6" opacity="0.71"/>
        <circle cx="275.6" cy="131.9" r="4.7" fill="#3b82f6" opacity="0.78"/>
        <circle cx="290.0" cy="90.6" r="3.2" fill="#f97316" opacity="0.94"/>
        <circle cx="220.8" cy="74.6" r="1.9" fill="#f97316" opacity="0.25"/>
        <circle cx="171.2" cy="87.4" r="1.1" fill="#f97316" opacity="0.31"/>
        <circle cx="245.3" cy="59.0" r="2.0" fill="#f97316" opacity="0.65"/>
        <circle cx="269.1" cy="71.7" r="2.4" fill="#f97316" opacity="0.80"/>
        <circle cx="182.2" cy="73.1" r="3.8" fill="#f97316" opacity="0.44"/>
        <circle cx="281.9" cy="115.6" r="6.2" fill="#3b82f6" opacity="0.88"/>
        <circle cx="224.9" cy="65.9" r="1.9" fill="#f97316" opacity="0.47"/>
        <circle cx="201.4" cy="84.5" r="2.7" fill="#f97316" opacity="0.25"/>
        <circle cx="252.3" cy="157.3" r="2.1" fill="#3b82f6" opacity="0.52"/>
        <circle cx="200.3" cy="75.5" r="1.9" fill="#f97316" opacity="0.39"/>
        <circle cx="287.4" cy="110.1" r="3.0" fill="#3b82f6" opacity="0.91"/>
        <circle cx="285.8" cy="113.0" r="3.2" fill="#3b82f6" opacity="0.90"/>
        <circle cx="231.2" cy="64.1" r="3.0" fill="#f97316" opacity="0.60"/>
        <circle cx="175.7" cy="100.2" r="1.5" fill="#9333ea" opacity="0.25"/>
        <circle cx="220.8" cy="70.2" r="3.3" fill="#f97316" opacity="0.51"/>
        <circle cx="237.9" cy="76.4" r="2.7" fill="#f97316" opacity="0.54"/>
        <circle cx="283.9" cy="85.1" r="6.1" fill="#f97316" opacity="0.90"/>
        <circle cx="210.9" cy="118.5" r="3.2" fill="#3b82f6" opacity="0.35"/>
        <circle cx="200.7" cy="135.6" r="2.5" fill="#3b82f6" opacity="0.25"/>
        <circle cx="283.7" cy="83.4" r="2.7" fill="#f97316" opacity="0.89"/>
        <circle cx="230.7" cy="57.9" r="3.9" fill="#f97316" opacity="0.55"/>
        <circle cx="276.8" cy="126.5" r="3.3" fill="#3b82f6" opacity="0.84"/>
        <circle cx="242.0" cy="69.9" r="4.2" fill="#f97316" opacity="0.62"/>
        <circle cx="258.1" cy="67.3" r="3.5" fill="#f97316" opacity="0.77"/>
        <circle cx="213.2" cy="78.2" r="1.8" fill="#f97316" opacity="0.25"/>
        <circle cx="289.6" cy="110.3" r="3.7" fill="#3b82f6" opacity="0.93"/>
        <circle cx="250.8" cy="63.0" r="3.5" fill="#f97316" opacity="0.61"/>
        <circle cx="200.5" cy="152.8" r="1.5" fill="#3b82f6" opacity="0.46"/>
        <circle cx="248.5" cy="147.4" r="3.3" fill="#3b82f6" opacity="0.62"/>
        <circle cx="246.1" cy="64.4" r="1.9" fill="#f97316" opacity="0.62"/>
        <circle cx="225.0" cy="130.8" r="3.7" fill="#3b82f6" opacity="0.56"/>
        <circle cx="211.0" cy="59.1" r="3.0" fill="#f97316" opacity="0.39"/>
        <circle cx="204.2" cy="146.6" r="3.1" fill="#3b82f6" opacity="0.39"/>
        <circle cx="205.8" cy="117.4" r="3.1" fill="#3b82f6" opacity="0.39"/>
        <circle cx="182.5" cy="99.1" r="2.3" fill="#9333ea" opacity="0.26"/>
        <circle cx="278.3" cy="81.3" r="4.8" fill="#f97316" opacity="0.84"/>
        <circle cx="254.3" cy="132.5" r="2.9" fill="#3b82f6" opacity="0.74"/>
        <circle cx="199.2" cy="81.7" r="2.5" fill="#f97316" opacity="0.47"/>
        <circle cx="257.9" cy="80.7" r="3.9" fill="#f97316" opacity="0.71"/>
        <circle cx="285.2" cy="86.4" r="5.0" fill="#f97316" opacity="0.90"/>
        <circle cx="204.3" cy="133.9" r="1.3" fill="#3b82f6" opacity="0.32"/>
        <circle cx="246.7" cy="155.4" r="2.4" fill="#3b82f6" opacity="0.47"/>
        <circle cx="289.1" cy="89.3" r="6.2" fill="#f97316" opacity="0.93"/>
        <circle cx="168.5" cy="101.0" r="2.8" fill="#9333ea" opacity="0.25"/>
        <circle cx="265.9" cy="66.9" r="2.8" fill="#f97316" opacity="0.64"/>
        <circle cx="210.7" cy="128.2" r="3.2" fill="#3b82f6" opacity="0.41"/>
        <circle cx="263.8" cy="56.4" r="5.1" fill="#f97316" opacity="0.72"/>
        <circle cx="209.8" cy="122.6" r="3.4" fill="#3b82f6" opacity="0.49"/>
        <circle cx="178.7" cy="65.4" r="2.1" fill="#f97316" opacity="0.35"/>
        <circle cx="280.8" cy="117.4" r="4.0" fill="#3b82f6" opacity="0.87"/>
        <circle cx="270.2" cy="71.5" r="3.1" fill="#f97316" opacity="0.78"/>
        <circle cx="243.6" cy="80.0" r="1.1" fill="#f97316" opacity="0.43"/>
        <circle cx="269.2" cy="76.6" r="5.8" fill="#f97316" opacity="0.81"/>
        <circle cx="278.6" cy="117.5" r="2.2" fill="#3b82f6" opacity="0.86"/>
        <circle cx="270.3" cy="126.6" r="4.2" fill="#3b82f6" opacity="0.80"/>
        <circle cx="239.6" cy="61.3" r="2.0" fill="#f97316" opacity="0.59"/>
        <circle cx="215.5" cy="138.6" r="1.6" fill="#3b82f6" opacity="0.44"/>
        <circle cx="257.6" cy="130.3" r="3.7" fill="#3b82f6" opacity="0.71"/>
        <circle cx="222.9" cy="61.2" r="1.8" fill="#f97316" opacity="0.28"/>
        <circle cx="218.1" cy="64.3" r="1.1" fill="#f97316" opacity="0.26"/>
        <circle cx="245.9" cy="60.2" r="4.7" fill="#f97316" opacity="0.62"/>
        <circle cx="272.7" cy="76.2" r="4.5" fill="#f97316" opacity="0.84"/>
        <circle cx="273.2" cy="123.2" r="2.4" fill="#3b82f6" opacity="0.82"/>
        <circle cx="277.0" cy="126.1" r="1.8" fill="#3b82f6" opacity="0.83"/>
        <circle cx="198.6" cy="121.4" r="2.7" fill="#3b82f6" opacity="0.39"/>
        <circle cx="209.9" cy="70.5" r="2.9" fill="#f97316" opacity="0.44"/>
        <circle cx="209.4" cy="61.1" r="1.7" fill="#f97316" opacity="0.42"/>
        <circle cx="242.2" cy="143.3" r="4.0" fill="#3b82f6" opacity="0.56"/>
        <circle cx="278.2" cy="120.9" r="2.6" fill="#3b82f6" opacity="0.82"/>
        <circle cx="273.8" cy="123.9" r="1.8" fill="#3b82f6" opacity="0.81"/>
        <circle cx="237.4" cy="148.7" r="4.7" fill="#3b82f6" opacity="0.65"/>
    </g>
    
    <text x="137.5" y="206" text-anchor="middle" class="logo-text">py<tspan fill="#f97316">pfda</tspan></text>
    <text x="137.5" y="226" text-anchor="middle" class="sub-text">AMOC RECONSTRUCTION</text>
</svg>
